<svg xmlns="http://www.w3.org/2000/svg" viewBox="0 0 32 32" fill="none">
  <defs>
    <linearGradient id="g" x1="0%" y1="0%" x2="100%" y2="100%">
      <stop offset="0%" style="stop-color:#8B5CF6"/>
      <stop offset="100%" style="stop-color:#6D28D9"/>
    </linearGradient>
  </defs>
  <!-- Rounded square background -->
  <rect x="2" y="2" width="28" height="28" rx="6" fill="url(#g)"/>
  <!-- Stylized G letter -->
  <path d="M16 8 C11 8 7 12 7 17 C7 22 11 26 16 26 C19 26 21.5 24.5 23 22 L23 17 L16 17 L16 20 L20 20 L20 21 C19 22.5 17.5 23.5 16 23.5 C12.5 23.5 10 20.5 10 17 C10 13.5 12.5 10.5 16 10.5 C18 10.5 19.5 11.5 20.5 13 L23.5 11.5 C22 9 19 8 16 8 Z" fill="white"/>
</svg>
