<svg xmlns="http://www.w3.org/2000/svg" viewBox="0 0 32 32" fill="none">
  <defs>
    <linearGradient id="g" x1="0%" y1="0%" x2="100%" y2="100%">
      <stop offset="0%" style="stop-color:#8B5CF6"/>
      <stop offset="100%" style="stop-color:#C4B5FD"/>
    </linearGradient>
  </defs>
  <path d="M8 22 Q5 21 6 18 Q7 15 10 14 Q9 12 11 10 Q13 8 17 8 Q15 6 18 4 Q21 2 25 4 Q28 6 28 10 Q30 9 31 12 Q32 15 30 18 Q32 20 30 22 Q28 24 24 24 Q20 25 16 25 Q10 25 8 22 Z" fill="url(#g)"/>
  <rect x="10" y="26" rx="1" width="12" height="2" fill="#8B5CF6" opacity="0.6"/>
  <rect x="12" y="29" rx="1" width="8" height="1.5" fill="#A78BFA" opacity="0.6"/>
</svg>
